<?xml version="1.0" encoding="utf-8"?>
<!-- Generator: Adobe Illustrator 20.1.0, SVG Export Plug-In . SVG Version: 6.00 Build 0)  -->
<svg version="1.1" id="Capa_1" xmlns="http://www.w3.org/2000/svg" xmlns:xlink="http://www.w3.org/1999/xlink" x="0px" y="0px"
	 viewBox="0 0 16 64" style="enable-background:new 0 0 16 64;" xml:space="preserve">
<style type="text/css">
	.st0{fill:#0C090D;}
</style>
<g transform="translate(0, 0)">
	<g>
		<path d="M8,3.2L2.4,7.8c0,0,0,0,0,0c0,0,0,0,0,0v4.7c0,0.2,0.1,0.3,0.2,0.4c0.1,0.1,0.3,0.2,0.4,0.2h3.7V9.4h2.5v3.7h3.7
			c0.2,0,0.3-0.1,0.4-0.2c0.1-0.1,0.2-0.3,0.2-0.4V7.9c0,0,0,0,0-0.1L8,3.2z"/>
		<path d="M15.7,6.8L13.6,5v-4c0-0.1,0-0.2-0.1-0.2c-0.1-0.1-0.1-0.1-0.2-0.1h-1.9c-0.1,0-0.2,0-0.2,0.1c-0.1,0.1-0.1,0.1-0.1,0.2V3
			L8.7,1C8.5,0.8,8.3,0.7,8,0.7C7.7,0.7,7.4,0.8,7.2,1l-7,5.8C0.2,6.8,0.2,6.9,0.2,7c0,0.1,0,0.2,0.1,0.2l0.6,0.7C0.9,8,0.9,8,1,8
			c0.1,0,0.2,0,0.2-0.1L8,2.4L14.7,8C14.7,8,14.8,8,14.9,8h0c0.1,0,0.2,0,0.2-0.1l0.6-0.7c0.1-0.1,0.1-0.1,0.1-0.2
			C15.8,6.9,15.8,6.8,15.7,6.8z"/>
	</g>
</g>
<g transform="translate(0, 16)">
	<path class="st0" d="M8-0.7c-4.4,0-8,3.6-8,8s3.6,8,8,8s8-3.6,8-8S12.4-0.7,8-0.7z M8,9.3c-1.1,0-2-0.9-2-2s0.9-2,2-2s2,0.9,2,2
		S9.1,9.3,8,9.3z M8,1.3c0.9,0,1.8,0.2,2.6,0.6L9,3.5c-0.7-0.3-1.3-0.3-2,0L5.4,1.9C6.2,1.5,7.1,1.3,8,1.3z M2,7.3
		c0-0.9,0.2-1.8,0.6-2.6l1.6,1.6c-0.3,0.7-0.3,1.3,0,2L2.6,9.9C2.2,9.1,2,8.2,2,7.3z M8,13.3c-0.9,0-1.8-0.2-2.6-0.6L7,11.1
		c0.8,0.2,1.3,0.2,2.1,0l1.6,1.6C9.8,13.1,8.9,13.3,8,13.3z M13.4,9.9l-1.6-1.6C12,7.5,12,7,11.8,6.2l1.6-1.6
		C13.8,5.5,14,6.4,14,7.3S13.8,9.1,13.4,9.9z"/>
</g>
<g transform="translate(0, 32)">
	<path class="st0" d="M15,1.3h-2v-1c0-0.6-0.4-1-1-1h-1c-0.6,0-1,0.4-1,1v1H6v-1c0-0.6-0.4-1-1-1H4c-0.6,0-1,0.4-1,1v1H1
		c-0.6,0-1,0.4-1,1v12c0,0.6,0.4,1,1,1h14c0.6,0,1-0.4,1-1v-12C16,1.7,15.6,1.3,15,1.3z M14,13.3H2v-7h12V13.3z"/>
</g>
<g transform="translate(0, 48)">
	<path class="st0" d="M8-0.7c-4.4,0-8,3.6-8,8s3.6,8,8,8s8-3.6,8-8S12.4-0.7,8-0.7z M13.9,8.3H8.7L6.9,3.9L5.1,4.7l1.4,3.6H2.1
		C2,8,2,7.6,2,7.3c0-3.3,2.7-6,6-6s6,2.7,6,6C14,7.6,14,8,13.9,8.3z"/>
</g>
</svg>
